HIERARCHY
ROOT hip
{
	OFFSET 0.000000 0.000000 0.000000 
	CHANNELS 6 Xposition Yposition Zposition Xrotation Zrotation Yrotation
	JOINT abdomen
	{
		OFFSET 0.000000 3.402643 0.000000 
		CHANNELS 3 Xrotation Zrotation Yrotation
		JOINT chest
		{
			OFFSET 0.000000 8.438565 -0.680529 
			CHANNELS 3 Xrotation Zrotation Yrotation
			JOINT neck
			{
				OFFSET 0.000000 10.207942 -0.272212 
				CHANNELS 3 Xrotation Zrotation Yrotation
				JOINT head
				{
					OFFSET 0.000000 3.130431 0.000000 
					CHANNELS 3 Xrotation Zrotation Yrotation
					End Site
					{
						OFFSET 0.000000 3.130435 0.000000 
					}
				}
			}
			JOINT lCollar
			{
				OFFSET 3.470700 6.669187 -0.816635 
				CHANNELS 3 Yrotation Zrotation Xrotation
				JOINT lShldr
				{
					OFFSET 3.198488 0.000000 0.000000 
					CHANNELS 3 Zrotation Yrotation Xrotation
					JOINT lForeArm
					{
						OFFSET 10.139888 0.000000 0.000000 
						CHANNELS 3 Yrotation Zrotation Xrotation
						JOINT lHand
						{
							OFFSET 8.370511 0.000000 0.000000 
							CHANNELS 3 Zrotation Yrotation Xrotation
							End Site
							{
								OFFSET 4.083176 0.000000 0.000000 
							}
						}
					}
				}
			}
			JOINT rCollar
			{
				OFFSET -3.470700 6.669187 -0.816635 
				CHANNELS 3 Yrotation Zrotation Xrotation
				JOINT rShldr
				{
					OFFSET -3.198488 0.000000 0.000000 
					CHANNELS 3 Zrotation Yrotation Xrotation
					JOINT rForeArm
					{
						OFFSET -10.139888 0.000000 0.000000 
						CHANNELS 3 Yrotation Zrotation Xrotation
						JOINT rHand
						{
							OFFSET -8.370511 0.000000 0.000000 
							CHANNELS 3 Zrotation Yrotation Xrotation
							End Site
							{
								OFFSET -4.083176 0.000000 0.000000 
							}
						}
					}
				}
			}
		}
	}
	JOINT lThigh
	{
		OFFSET 5.308129 -1.633274 1.361059 
		CHANNELS 3 Xrotation Zrotation Yrotation
		JOINT lShin
		{
			OFFSET -2.041588 -20.007561 0.000000 
			CHANNELS 3 Xrotation Zrotation Yrotation
			JOINT lFoot
			{
				OFFSET 0.000000 -19.190928 -1.224953 
				CHANNELS 3 Xrotation Yrotation Zrotation
				End Site
				{
					OFFSET 0.000000 -2.449906 4.627600 
				}
			}
		}
	}
	JOINT rThigh
	{
		OFFSET -5.308129 -1.633274 1.361059 
		CHANNELS 3 Xrotation Zrotation Yrotation
		JOINT rShin
		{
			OFFSET 2.041588 -20.007561 0.000000 
			CHANNELS 3 Xrotation Zrotation Yrotation
			JOINT rFoot
			{
				OFFSET 0.000000 -19.190928 -1.224953 
				CHANNELS 3 Xrotation Yrotation Zrotation
				End Site
				{
					OFFSET 0.000000 -2.449906 4.627600 
				}
			}
		}
	}
}
MOTION
Frames: 18
Frame Time: 0.033333
-67.609718 50.499992 -68.381905 8.085938 -11.962891 47.068283 5.917969 0.351563 -5.634759 -17.177734 11.826172 -3.964844 -3.349609 4.902344 10.967631 0.234375 -11.689445 13.044906 0.869141 -2.646484 -0.136719 -90.771484 -0.771484 -8.242188 -50.634762 4.248047 57.938725 -12.167969 13.798828 -3.017578 5.908203 -6.914063 -0.155074 81.484375 -26.640623 -12.230940 35.732422 -4.619141 59.101566 -1.757813 -0.009766 -0.175781 -7.729419 6.469357 6.885183 45.426285 -0.540003 -3.238898 27.029388 -16.241449 -4.297843 -30.275219 2.264985 0.105591 23.282707 1.313286 1.842030 -1.955421 -2.250776 11.761810 
-67.009415 50.506664 -67.527161 7.197265 -11.435547 49.208981 9.238281 0.351563 -6.025391 -19.287109 12.187499 -4.519423 -4.140625 4.541016 9.785156 0.410156 -11.523438 11.806640 0.693359 -2.822266 -0.146484 -90.322266 -0.029297 -5.986333 -49.736328 4.238281 56.591080 -9.042969 14.765624 -2.324219 5.927735 -6.718750 -0.008623 81.630859 -24.189455 -12.421876 35.507813 -4.589844 59.199215 -3.720703 3.310547 -0.350997 -13.590200 7.448881 5.640390 55.253975 0.094775 -3.414884 26.153690 -12.530826 -6.515094 -28.552948 2.089691 -1.942420 24.677094 1.385589 1.917988 -3.773785 -2.247187 12.009838 
-66.009460 50.610909 -66.471321 7.021484 -11.259766 49.177784 9.970702 0.351563 -5.244135 -19.638672 11.835938 -4.003906 -4.423828 3.955078 8.261718 0.058594 -11.162107 10.242251 0.693359 -2.822266 -0.146484 -90.185547 1.210938 -4.755651 -48.798824 4.248047 56.942635 -9.589845 14.013672 -2.490235 5.927735 -6.718750 -0.008623 81.894531 -22.109375 -10.234375 36.435547 -4.355469 55.878906 -3.515625 -1.064453 -0.009766 -18.535345 7.822471 5.279939 61.406147 0.413071 -3.874961 22.624651 -7.850496 -9.321726 -26.417181 2.089410 -2.275275 24.699505 1.561023 1.613784 -5.166866 -1.690211 11.691941 
-64.921738 50.775894 -65.439720 7.558595 -11.083985 47.947342 9.638673 0.039063 -4.218743 -18.759766 11.308593 -2.761757 -4.873047 3.564453 6.904904 -0.644531 -10.625001 8.867188 1.220703 -2.470703 -0.126954 -90.468750 2.080078 -4.228516 -47.480469 4.169922 57.744141 -11.269531 14.228960 -2.849340 5.576172 -6.367188 -0.077042 81.542969 -18.808596 -7.688695 36.728519 -4.316407 53.838627 -3.515625 -1.591797 -0.009766 -23.192598 7.880602 5.809654 65.623756 0.581039 -3.609143 18.442835 -3.943887 -11.054820 -24.504196 2.089593 -1.751424 24.862659 1.381457 1.936542 -6.451401 -0.763988 11.950454 
-63.930748 50.921124 -64.434784 7.900391 -10.732421 47.420052 9.833984 -0.507813 -3.515625 -18.935547 11.132813 -1.884765 -4.716797 2.988281 6.640625 0.068359 -10.107421 8.484615 1.220703 -2.294922 -0.126562 -90.898438 3.466797 -4.570313 -45.849609 4.355469 58.485584 -10.273438 13.632812 -2.480469 5.751953 -6.718750 -0.028154 81.679688 -16.103516 -4.179688 38.212891 -4.003906 49.296875 -3.212891 -7.363281 0.341797 -27.783571 7.545249 4.975748 67.549782 0.374408 -4.013083 15.790506 -0.868290 -12.170110 -22.956732 1.210709 -4.439082 25.223600 1.209794 1.891113 -5.955555 3.155371 12.482591 
-63.129829 50.984032 -63.490219 8.085938 -11.083985 46.892651 10.195313 -0.898438 -2.724609 -19.472656 10.605469 -1.189609 -4.433594 3.173828 5.537650 -0.449219 -9.404297 7.460938 0.869141 -1.591797 -0.156250 -91.503906 5.361329 -5.781250 -45.087887 4.248047 59.862556 -11.494141 14.365235 -3.015154 5.576172 -6.201172 -0.096601 81.748047 -13.476563 -4.250322 38.398438 -4.355469 54.873787 -3.876953 -0.878906 0.000000 -32.370079 7.147693 3.505193 67.028038 0.746686 -3.558426 13.802874 -0.655437 -12.200187 -21.758965 1.727748 -3.341438 25.402456 1.209630 2.085082 -5.684465 2.438060 12.344515 
-62.140896 51.057377 -62.608814 8.261718 -10.908204 45.664063 10.371094 -0.976563 -1.787109 -19.296875 10.605469 -0.300937 -4.824218 2.167969 4.805057 -1.152344 -9.042969 6.609793 0.693359 -1.591797 -0.166016 -92.099609 6.542968 -6.806641 -43.281250 4.316407 60.448479 -10.537109 14.648438 -2.646484 5.576172 -6.367188 -0.077042 81.230469 -10.175780 -2.140395 39.257809 -4.130860 52.675777 -4.394532 -1.416016 0.000000 -36.035000 6.269619 2.410956 64.209694 0.391104 -3.669128 12.449317 -1.611395 -12.134049 -20.452971 2.079765 -1.389287 25.750286 1.205465 1.946042 -5.826912 1.544589 12.145742 
-61.163719 51.084164 -61.720985 8.427734 -10.732422 44.461071 10.712891 -1.132813 -1.074219 -18.769531 10.605469 0.577969 -5.400391 1.503906 4.023437 -1.152344 -8.691406 5.730946 0.693359 -1.943359 -0.156250 -92.255859 7.900392 -8.475218 -41.992191 4.453125 60.791012 -11.503906 14.541017 -3.017578 5.576172 -6.367188 -0.077042 80.751953 -6.611329 0.877782 40.292969 -4.121094 49.072968 -4.951172 -4.365234 0.341054 -38.742882 5.594018 1.252326 59.997490 0.267111 -3.747171 11.744699 -1.095765 -11.855209 -19.421118 2.275403 -0.434226 27.154625 1.098862 2.168719 -7.124416 1.310925 12.112262 
-60.153824 51.166592 -60.892551 8.955078 -10.722657 43.242188 10.537109 -1.289063 -0.371313 -18.242186 9.199218 1.290623 -6.152343 1.914063 3.242514 -1.328125 -8.339844 4.861865 0.341797 -1.767576 -0.165715 -91.748047 9.326173 -9.978884 -40.683590 4.453125 62.225803 -11.337891 14.716797 -3.015097 5.751953 -5.498047 -0.145549 80.654297 -3.144531 2.500000 41.406250 -4.150391 49.824219 -3.535156 -5.439453 0.165092 -40.650162 4.881726 0.822388 53.333572 0.286763 -3.428450 10.876878 0.595604 -12.184778 -18.431087 2.264462 0.725618 27.154341 0.789850 2.100204 -7.585891 1.624374 12.118154 
-59.162952 51.120773 -60.120243 9.833984 -10.722657 42.187500 10.351563 -1.523438 0.107422 -18.593748 9.199219 1.632421 -6.201172 0.878922 2.334090 -1.318359 -7.812500 3.984375 0.166016 -1.943359 -0.175781 -91.494141 10.908203 -11.092243 -38.984375 4.433594 63.104713 -11.279297 14.404295 -2.849133 6.113281 -5.322266 -0.135813 80.468750 -0.302734 2.705078 41.660160 -4.160156 51.250710 -2.988281 -3.173828 -0.010306 -42.222206 4.013165 0.110881 45.781742 -0.227961 -3.325483 9.129201 2.112210 -12.529811 -17.820215 1.552552 0.995206 27.505571 1.117178 2.190351 -7.916819 2.640283 12.375490 
-58.157661 51.055794 -59.171684 9.667968 -11.083984 41.269531 10.507813 -1.289063 0.810547 -18.769531 8.671875 2.159676 -6.250000 0.195312 1.386719 -1.132813 -6.933594 2.744141 -0.009766 -1.582031 -0.175781 -91.464844 12.304688 -12.373047 -37.460938 4.453125 64.257057 -12.841797 13.232423 -3.007813 6.289063 -5.146484 -0.135843 80.673828 2.167969 2.978887 42.050781 -4.121093 50.566410 -3.173828 -1.943359 0.000000 -42.391796 4.168341 -0.257898 37.141735 -0.631341 -3.083732 9.001534 2.275591 -12.505967 -16.595379 1.717722 1.466732 28.394476 1.199825 1.904153 -9.089804 2.822824 12.549190 
-57.061687 50.939911 -58.149780 9.140625 -11.435547 40.212910 10.664063 -0.585938 1.757716 -18.417969 8.320313 2.861328 -7.880859 -0.292969 0.566356 1.162109 -6.601562 1.590674 0.166016 -1.240234 -0.175781 -91.591797 13.320313 -14.013671 -36.464844 4.687500 66.669121 -14.296875 12.724610 -3.320313 5.937500 -5.146484 -0.174905 81.406250 4.824219 3.516446 42.812504 -4.179688 50.049541 -4.228463 -2.119101 -0.000357 -41.478588 4.891525 -0.702233 28.375771 -1.246379 -2.108497 8.574378 2.031342 -12.576272 -15.085832 2.265220 1.377326 29.081135 1.121789 2.445553 -7.606698 4.126499 12.462627 
-55.938564 50.754566 -57.124729 8.789063 -11.787109 39.158161 10.664063 -0.185547 2.148438 -18.066406 8.671875 3.224129 -9.140625 -1.445313 0.048828 2.578125 -6.269531 0.654297 0.341797 -1.416014 -0.175540 -91.835938 14.316406 -15.827662 -35.458984 4.765625 67.841797 -13.671874 13.994140 -3.327717 6.289063 -6.025390 -0.039062 81.806641 6.933594 3.692586 43.603519 -4.033203 49.834667 -3.515625 -1.767578 0.000000 -40.868969 5.419784 -0.709913 21.324677 -1.406641 -1.952621 7.664295 2.693801 -12.561124 -13.610171 2.606690 1.669952 30.132883 1.121569 2.313987 -7.127181 4.850656 12.536310 
-54.705864 50.488846 -56.070213 8.955078 -11.777345 38.320316 10.644531 -0.263672 2.695268 -18.417969 8.144532 3.740235 -8.476563 -1.562500 -0.644531 1.357422 -5.546875 0.175781 -0.009766 -1.582031 -0.175781 -91.054688 15.996095 -17.282463 -34.541016 4.638672 69.217957 -13.330077 14.189453 -3.327683 6.464844 -5.498047 -0.086955 81.855469 7.656250 4.033203 44.091797 -4.101563 50.215542 -4.755859 -0.712891 -0.009887 -41.021080 5.760672 -0.983940 17.091871 -1.354678 -2.264478 6.426155 3.680962 -12.664052 -12.612530 2.264949 1.772522 31.378414 0.930784 2.327597 -8.086650 5.659978 12.798490 
-53.468906 50.285187 -54.907452 8.955079 -12.490233 36.902184 10.097656 -0.029297 3.408203 -18.427734 7.792969 4.268902 -8.134766 -1.621094 -0.986604 1.181641 -4.667969 -0.342592 -0.185547 -0.703125 -0.009766 -91.542969 17.294924 -19.716797 -33.828125 4.707031 70.174973 -12.802733 14.218750 -3.337445 6.464844 -4.970703 -0.146484 81.796875 8.955079 5.040584 44.375000 -4.003906 49.483097 -5.097656 -1.767578 -0.010067 -40.751717 6.296895 -0.960812 14.404176 -1.560382 -1.985402 5.622352 4.412724 -12.621840 -11.148456 2.586704 2.617449 31.896441 0.935747 2.334976 -5.672741 6.368109 12.709640 
-51.934475 50.137905 -53.712807 8.613282 -12.314453 37.576038 9.765624 0.361328 3.007812 -18.251955 7.617188 3.916016 -8.164063 -2.226563 -1.425781 1.718750 -4.501953 -0.889438 -0.185547 -0.878906 -0.009766 -91.542969 18.144533 -21.679688 -33.173828 4.707032 71.005859 -13.261719 13.701173 -3.164063 6.464844 -5.146484 -0.126077 81.650391 9.550780 5.888671 44.667969 -4.023438 48.603516 -4.921875 -1.240234 -0.009766 -39.236874 5.419436 -2.335899 14.256373 -1.572414 -1.959526 5.634429 5.231865 -12.924634 -9.107990 1.727822 1.590818 32.436668 1.018392 2.238230 -4.483543 7.856575 12.640769 
-50.397133 49.952557 -52.431484 9.140625 -12.314453 37.048698 8.701172 -0.029297 3.007813 -17.890623 7.968750 4.102916 -6.972656 -3.378975 -1.943887 -0.556641 -2.890630 -1.494631 -0.009766 -1.582031 -0.175781 -90.654297 18.466797 -23.551592 -32.021484 4.833985 73.036285 -13.320313 14.013672 -3.330078 6.464844 -5.498047 -0.086955 81.777344 9.208984 6.093750 45.351566 -4.130859 50.274139 -2.646484 -1.767578 -0.000301 -39.316139 4.716701 -2.292639 17.955755 -1.572506 -1.802584 6.174191 6.271172 -12.774364 -7.662079 1.025127 2.239140 33.132763 0.744940 2.547270 -2.136495 8.243149 11.979387 
-48.817974 49.942493 -51.027130 9.833983 -11.777344 36.386715 7.451171 -1.289063 3.164063 -18.076172 7.441407 4.628906 -7.177734 -3.037109 -3.076690 1.025391 -2.734375 -2.793434 0.166016 -1.416016 -0.175781 -89.892578 18.623045 -25.963678 -30.947262 4.853516 75.907379 -13.085938 13.710938 -3.173828 6.123047 -4.775391 -0.018718 82.099609 7.753907 5.606788 45.878906 -4.189453 51.016338 -2.119128 -1.591787 -0.000269 -39.390499 4.003323 0.161162 21.510254 -1.416469 -1.954144 7.408563 4.825074 -12.849599 -6.451788 -0.010195 3.761100 33.666771 0.779441 2.378568 1.626057 8.135910 11.504043 
